<svg width="159" height="171" viewBox="0 0 159 171" fill="none" xmlns="http://www.w3.org/2000/svg">
<path fill-rule="evenodd" clip-rule="evenodd" d="M79.5 156.014C115.398 156.014 144.5 126.06 144.5 89.1094C144.5 52.1589 115.398 22.2047 79.5 22.2047C43.6019 22.2047 14.5007 52.1589 14.5007 89.1094C14.5007 126.06 43.6019 156.014 79.5 156.014Z" stroke="#3AD29F" stroke-width="0.613889" stroke-dasharray="3.68 3.68"/>
<path fill-rule="evenodd" clip-rule="evenodd" d="M79.5 170.206C123.013 170.206 158.287 133.897 158.287 89.1093C158.287 44.321 123.013 8.01278 79.5 8.01278C35.9871 8.01278 0.713005 44.321 0.713005 89.1093C0.713005 133.897 35.9871 170.206 79.5 170.206Z" stroke="#3AD29F" stroke-width="0.613889" stroke-dasharray="3.68 3.68"/>
<path d="M132.23 114.945C132.232 105.503 125.253 97.6109 116.121 96.7273C106.989 95.8429 98.7026 102.258 96.995 111.535L42.3716 110.01L42.9713 119.669C42.9713 119.669 35.1824 138.168 76.1189 143.097V161.795H123.443V130.707C128.881 127.429 132.225 121.432 132.23 114.945Z" fill="url(#paint0_linear_1_4)"/>
<path d="M44.8468 120.075C44.8468 120.075 37.3884 137.79 76.5917 142.516V160.43H121.914V112.99L44.2647 110.823L44.8468 120.075Z" fill="#BE7C5E"/>
<path d="M67.4981 46.1485C65.038 50.1443 59.9045 51.3451 56.0084 48.8359L31.6741 32.3305C27.7921 29.7983 26.6255 24.5144 29.0632 20.5039C31.5229 16.5135 36.6498 15.3135 40.5442 17.8165L64.8784 34.3219C68.7636 36.8512 69.9341 42.1357 67.4981 46.1485Z" fill="url(#paint1_linear_1_4)"/>
<path d="M66.15 45.2473C63.8632 48.9616 59.0917 50.0778 55.47 47.7456L32.8428 32.3913C29.2343 30.0375 28.15 25.1261 30.4157 21.3982C32.7024 17.684 37.474 16.5678 41.0957 18.9L63.7185 34.2453C67.3339 36.5979 68.4208 41.5165 66.15 45.2473Z" fill="#BE7C5E"/>
<path d="M113.311 133.068C122.71 133.068 130.331 125.225 130.331 115.549C130.331 105.873 122.71 98.03 113.311 98.03C103.91 98.03 96.2905 105.873 96.2905 115.549C96.2905 125.225 103.91 133.068 113.311 133.068Z" fill="#BE7C5E"/>
<path d="M110.247 0H45.046C43.5654 0 42.3651 1.23549 42.3651 2.75954V128.337C42.3651 129.862 43.5654 131.097 45.046 131.097H110.247C111.727 131.097 112.928 129.862 112.928 128.337V2.75954C112.928 1.23549 111.727 0 110.247 0Z" fill="url(#paint2_linear_1_4)"/>
<path d="M108.986 1.77286H46.3022C44.6535 1.77286 43.3171 3.14853 43.3171 4.84551V126.256C43.3171 127.953 44.6535 129.329 46.3022 129.329H108.986C110.635 129.329 111.971 127.953 111.971 126.256V4.84551C111.971 3.14853 110.635 1.77286 108.986 1.77286Z" fill="white"/>
<path d="M94.8916 4.97169C94.4817 7.76685 92.1516 9.83595 89.4051 9.84424H65.6947C62.9492 9.83485 60.6206 7.76597 60.2103 4.97169H47.6482C46.9565 4.97169 46.293 5.25349 45.8036 5.75671C45.3144 6.25993 45.0394 6.94269 45.0394 7.65463V123.442C45.0394 124.155 45.3132 124.837 45.8021 125.341C46.291 125.845 46.9543 126.128 47.646 126.128H107.642C108.334 126.128 108.998 125.846 109.487 125.343C109.976 124.84 110.251 124.157 110.251 123.445V7.65691C110.251 6.94494 109.977 6.26194 109.488 5.7583C108.999 5.25467 108.336 4.97169 107.644 4.97169H94.8916Z" fill="#2F56F8"/>
<path d="M84.9538 6.49674H70.5292C70.2875 6.49674 70.0915 6.69846 70.0915 6.94728V7.03063C70.0915 7.27945 70.2875 7.48114 70.5292 7.48114H84.9538C85.1955 7.48114 85.3916 7.27945 85.3916 7.03063V6.94728C85.3916 6.69846 85.1955 6.49674 84.9538 6.49674Z" fill="#DBDBDB"/>
<path d="M88.6414 7.62484C89.035 7.62484 89.3544 7.29626 89.3544 6.89093C89.3544 6.48561 89.035 6.15703 88.6414 6.15703C88.2479 6.15703 87.9284 6.48561 87.9284 6.89093C87.9284 7.29626 88.2479 7.62484 88.6414 7.62484Z" fill="#DBDBDB"/>
<path d="M124.312 118.64C119.373 119.816 115.983 116.499 114.84 111.418L103.49 68.0377C102.361 62.936 105.446 57.853 110.395 56.6595C115.352 55.4971 120.29 58.6721 121.45 63.7667L130.712 108.266C131.854 113.35 129.25 117.464 124.312 118.64Z" fill="url(#paint3_linear_1_4)"/>
<path d="M120.176 64.8286C119.213 60.5386 115.054 57.8645 110.886 58.8557C106.718 59.8469 104.121 64.1281 105.083 68.418L115.52 114.912C116.483 119.202 120.643 121.876 124.81 120.885C128.978 119.893 131.576 115.612 130.612 111.322L120.176 64.8286Z" fill="#BE7C5E"/>
<path d="M130.259 154.568H65.4781V170.111H130.259V154.568Z" fill="url(#paint4_linear_1_4)"/>
<path d="M128.508 156.37H67.2289V168.534H128.508V156.37Z" fill="#4D8AF0"/>
<path d="M58.0524 92.6842C55.6222 96.6326 50.5501 97.8193 46.7005 95.3402L30.3807 84.4711C26.5447 81.9699 25.3919 76.7489 27.8004 72.7864C30.2306 68.8381 35.3027 67.6514 39.1523 70.1305L55.4721 80.9997C59.3081 83.5008 60.4609 88.7218 58.0524 92.6842Z" fill="url(#paint5_linear_1_4)"/>
<path d="M53.9555 115.691C51.5036 119.676 46.3854 120.874 42.5008 118.372L32.3919 110.785C28.5209 108.261 27.3572 102.993 29.7876 98.9943C32.2395 95.0092 37.3577 93.8115 41.2424 96.3134L51.3512 103.903C55.2209 106.427 56.3845 111.693 53.9555 115.691Z" fill="url(#paint6_linear_1_4)"/>
<g opacity="0.5">
<path d="M77.644 85.8112C88.5152 85.8112 97.328 76.7401 97.328 65.5508C97.328 54.3612 88.5152 45.2902 77.644 45.2902C66.7732 45.2902 57.9605 54.3612 57.9605 65.5508C57.9605 76.7401 66.7732 85.8112 77.644 85.8112Z" fill="url(#paint7_linear_1_4)"/>
</g>
<path d="M77.6441 84.6201C87.8757 84.6201 96.17 76.0825 96.17 65.5508C96.17 55.0193 87.8757 46.4818 77.6441 46.4818C67.4126 46.4818 59.1182 55.0193 59.1182 65.5508C59.1182 76.0825 67.4126 84.6201 77.6441 84.6201Z" fill="#69F0AE"/>
<path d="M69.6035 63.0053L76.5496 69.5606L86.3919 54.6636L89.8671 57.6439L76.5496 75.5211L66.7081 64.1992L69.6035 63.0053Z" fill="white"/>
<path d="M53.1392 115.126C50.8524 118.84 46.0808 119.956 42.4592 117.624L33.031 110.559C29.4226 108.206 28.3382 103.294 30.6039 99.566C32.8907 95.8525 37.6623 94.7362 41.284 97.0678L50.7099 104.146C54.3111 106.499 55.3956 111.4 53.1392 115.126Z" fill="#BE7C5E"/>
<path d="M57.1552 92.0875C54.8684 95.8018 50.0968 96.9181 46.4751 94.5858L31.1204 84.3588C27.512 82.0044 26.4276 77.0931 28.6933 73.3653C30.9801 69.6512 35.7517 68.535 39.3733 70.8671L54.7281 81.0944C58.3365 83.448 59.4209 88.3593 57.1552 92.0875Z" fill="#BE7C5E"/>
<path d="M62.2719 69.7858C59.8297 73.7516 54.7347 74.9428 50.8675 72.453L30.1859 58.5923C26.3332 56.0785 25.1755 50.8342 27.5947 46.8536C30.0369 42.8879 35.1318 41.6963 38.9991 44.1864L59.6807 58.0472C63.5334 60.5609 64.691 65.8052 62.2719 69.7858Z" fill="url(#paint8_linear_1_4)"/>
<path d="M61.1733 69.065C58.8865 72.7792 54.1149 73.8955 50.4933 71.5632L31.1226 58.581C27.5141 56.2272 26.4298 51.3158 28.6955 47.5879C30.9823 43.8737 35.7538 42.7576 39.3755 45.0897L58.744 58.0719C62.3532 60.4249 63.4386 65.3365 61.1733 69.065Z" fill="#BE7C5E"/>
<defs>
<linearGradient id="paint0_linear_1_4" x1="87.3045" y1="161.806" x2="87.3045" y2="96.6488" gradientUnits="userSpaceOnUse">
<stop stop-color="#808080" stop-opacity="0.25"/>
<stop offset="0.54" stop-color="#808080" stop-opacity="0.12"/>
<stop offset="1" stop-color="#808080" stop-opacity="0.1"/>
</linearGradient>
<linearGradient id="paint1_linear_1_4" x1="48.2785" y1="50.1492" x2="48.2785" y2="16.5077" gradientUnits="userSpaceOnUse">
<stop stop-color="#808080" stop-opacity="0.25"/>
<stop offset="0.54" stop-color="#808080" stop-opacity="0.12"/>
<stop offset="1" stop-color="#808080" stop-opacity="0.1"/>
</linearGradient>
<linearGradient id="paint2_linear_1_4" x1="77.6462" y1="131.095" x2="77.6462" y2="-0.00225043" gradientUnits="userSpaceOnUse">
<stop stop-color="#808080" stop-opacity="0.25"/>
<stop offset="0.54" stop-color="#808080" stop-opacity="0.12"/>
<stop offset="1" stop-color="#808080" stop-opacity="0.1"/>
</linearGradient>
<linearGradient id="paint3_linear_1_4" x1="117.117" y1="118.874" x2="117.117" y2="56.4162" gradientUnits="userSpaceOnUse">
<stop stop-color="#808080" stop-opacity="0.25"/>
<stop offset="0.54" stop-color="#808080" stop-opacity="0.12"/>
<stop offset="1" stop-color="#808080" stop-opacity="0.1"/>
</linearGradient>
<linearGradient id="paint4_linear_1_4" x1="97.8727" y1="170.107" x2="97.8727" y2="154.563" gradientUnits="userSpaceOnUse">
<stop stop-color="#808080" stop-opacity="0.25"/>
<stop offset="0.54" stop-color="#808080" stop-opacity="0.12"/>
<stop offset="1" stop-color="#808080" stop-opacity="0.1"/>
</linearGradient>
<linearGradient id="paint5_linear_1_4" x1="42.9232" y1="96.6356" x2="42.9232" y2="68.8375" gradientUnits="userSpaceOnUse">
<stop stop-color="#808080" stop-opacity="0.25"/>
<stop offset="0.54" stop-color="#808080" stop-opacity="0.12"/>
<stop offset="1" stop-color="#808080" stop-opacity="0.1"/>
</linearGradient>
<linearGradient id="paint6_linear_1_4" x1="41.8727" y1="119.678" x2="41.8727" y2="95.0048" gradientUnits="userSpaceOnUse">
<stop stop-color="#808080" stop-opacity="0.25"/>
<stop offset="0.54" stop-color="#808080" stop-opacity="0.12"/>
<stop offset="1" stop-color="#808080" stop-opacity="0.1"/>
</linearGradient>
<linearGradient id="paint7_linear_1_4" x1="77.644" y1="85.8112" x2="77.644" y2="45.2879" gradientUnits="userSpaceOnUse">
<stop stop-color="#808080" stop-opacity="0.25"/>
<stop offset="0.54" stop-color="#808080" stop-opacity="0.12"/>
<stop offset="1" stop-color="#808080" stop-opacity="0.1"/>
</linearGradient>
<linearGradient id="paint8_linear_1_4" x1="44.9322" y1="73.7619" x2="44.9322" y2="42.8933" gradientUnits="userSpaceOnUse">
<stop stop-color="#808080" stop-opacity="0.25"/>
<stop offset="0.54" stop-color="#808080" stop-opacity="0.12"/>
<stop offset="1" stop-color="#808080" stop-opacity="0.1"/>
</linearGradient>
</defs>
</svg>
